<mxfile host="app.diagrams.net" agent="Mozilla/5.0 (Macintosh; Intel Mac OS X 10_15_7) AppleWebKit/537.36 (KHTML, like Gecko) Chrome/134.0.0.0 Safari/537.36" version="26.1.1">
  <diagram name="Page-1" id="2YBvvXClWsGukQMizWep">
    <mxGraphModel dx="1026" dy="650" grid="1" gridSize="10" guides="1" tooltips="1" connect="1" arrows="1" fold="1" page="1" pageScale="1" pageWidth="850" pageHeight="1100" math="0" shadow="0">
      <root>
        <mxCell id="0" />
        <mxCell id="1" parent="0" />
        <mxCell id="HrBi-GwACowh-hKgW3gO-1" value="aPersistenceManager" style="rounded=0;whiteSpace=wrap;html=1;" vertex="1" parent="1">
          <mxGeometry x="278" y="40" width="160" height="60" as="geometry" />
        </mxCell>
        <mxCell id="HrBi-GwACowh-hKgW3gO-2" value="aTrip" style="rounded=0;whiteSpace=wrap;html=1;" vertex="1" parent="1">
          <mxGeometry x="538" y="110" width="120" height="60" as="geometry" />
        </mxCell>
        <mxCell id="HrBi-GwACowh-hKgW3gO-3" value="" style="endArrow=none;dashed=1;html=1;dashPattern=1 3;strokeWidth=2;rounded=0;entryX=0.45;entryY=1.033;entryDx=0;entryDy=0;entryPerimeter=0;" edge="1" parent="1" source="HrBi-GwACowh-hKgW3gO-12" target="HrBi-GwACowh-hKgW3gO-1">
          <mxGeometry width="50" height="50" relative="1" as="geometry">
            <mxPoint x="350" y="370" as="sourcePoint" />
            <mxPoint x="498" y="160" as="targetPoint" />
          </mxGeometry>
        </mxCell>
        <mxCell id="HrBi-GwACowh-hKgW3gO-4" value="" style="endArrow=none;dashed=1;html=1;dashPattern=1 3;strokeWidth=2;rounded=0;entryX=0.25;entryY=1;entryDx=0;entryDy=0;" edge="1" parent="1" source="HrBi-GwACowh-hKgW3gO-15" target="HrBi-GwACowh-hKgW3gO-2">
          <mxGeometry width="50" height="50" relative="1" as="geometry">
            <mxPoint x="568" y="370" as="sourcePoint" />
            <mxPoint x="618" y="100" as="targetPoint" />
          </mxGeometry>
        </mxCell>
        <mxCell id="HrBi-GwACowh-hKgW3gO-7" value="" style="shape=umlDestroy;whiteSpace=wrap;html=1;strokeWidth=3;targetShapes=umlLifeline;" vertex="1" parent="1">
          <mxGeometry x="570" y="450" width="30" height="30" as="geometry" />
        </mxCell>
        <mxCell id="HrBi-GwACowh-hKgW3gO-8" value="2: new Trip Entry" style="html=1;verticalAlign=bottom;endArrow=open;dashed=1;endSize=8;curved=0;rounded=0;entryX=-0.021;entryY=0.633;entryDx=0;entryDy=0;entryPerimeter=0;" edge="1" parent="1" target="HrBi-GwACowh-hKgW3gO-2">
          <mxGeometry x="-0.0588" y="10" relative="1" as="geometry">
            <mxPoint x="360" y="150" as="sourcePoint" />
            <mxPoint x="530" y="150" as="targetPoint" />
            <mxPoint as="offset" />
          </mxGeometry>
        </mxCell>
        <mxCell id="HrBi-GwACowh-hKgW3gO-9" value="3: addNote(note)" style="html=1;verticalAlign=bottom;startArrow=oval;startFill=1;endArrow=block;startSize=8;curved=0;rounded=0;" edge="1" parent="1">
          <mxGeometry width="60" relative="1" as="geometry">
            <mxPoint x="350" y="240" as="sourcePoint" />
            <mxPoint x="555" y="240" as="targetPoint" />
          </mxGeometry>
        </mxCell>
        <mxCell id="HrBi-GwACowh-hKgW3gO-10" value="aController" style="html=1;whiteSpace=wrap;" vertex="1" parent="1">
          <mxGeometry x="20" y="40" width="110" height="50" as="geometry" />
        </mxCell>
        <mxCell id="HrBi-GwACowh-hKgW3gO-11" value="" style="endArrow=none;dashed=1;html=1;dashPattern=1 3;strokeWidth=2;rounded=0;" edge="1" parent="1">
          <mxGeometry width="50" height="50" relative="1" as="geometry">
            <mxPoint x="70" y="360" as="sourcePoint" />
            <mxPoint x="70" y="90" as="targetPoint" />
            <Array as="points">
              <mxPoint x="70" y="220" />
            </Array>
          </mxGeometry>
        </mxCell>
        <mxCell id="HrBi-GwACowh-hKgW3gO-13" value="" style="endArrow=none;dashed=1;html=1;dashPattern=1 3;strokeWidth=2;rounded=0;entryX=0.45;entryY=1.033;entryDx=0;entryDy=0;entryPerimeter=0;" edge="1" parent="1" source="HrBi-GwACowh-hKgW3gO-24" target="HrBi-GwACowh-hKgW3gO-12">
          <mxGeometry width="50" height="50" relative="1" as="geometry">
            <mxPoint x="350" y="360" as="sourcePoint" />
            <mxPoint x="350" y="102" as="targetPoint" />
          </mxGeometry>
        </mxCell>
        <mxCell id="HrBi-GwACowh-hKgW3gO-12" value="" style="html=1;points=[[0,0,0,0,5],[0,1,0,0,-5],[1,0,0,0,5],[1,1,0,0,-5]];perimeter=orthogonalPerimeter;outlineConnect=0;targetShapes=umlLifeline;portConstraint=eastwest;newEdgeStyle={&quot;curved&quot;:0,&quot;rounded&quot;:0};" vertex="1" parent="1">
          <mxGeometry x="350" y="130" width="10" height="80" as="geometry" />
        </mxCell>
        <mxCell id="HrBi-GwACowh-hKgW3gO-14" value="1: &amp;lt;async&amp;gt;save" style="html=1;verticalAlign=bottom;startArrow=oval;startFill=1;endArrow=block;startSize=8;curved=0;rounded=0;" edge="1" parent="1" target="HrBi-GwACowh-hKgW3gO-12">
          <mxGeometry width="60" relative="1" as="geometry">
            <mxPoint x="80" y="150" as="sourcePoint" />
            <mxPoint x="570" y="250" as="targetPoint" />
            <Array as="points">
              <mxPoint x="100" y="150" />
            </Array>
            <mxPoint as="offset" />
          </mxGeometry>
        </mxCell>
        <mxCell id="HrBi-GwACowh-hKgW3gO-16" value="" style="endArrow=none;dashed=1;html=1;dashPattern=1 3;strokeWidth=2;rounded=0;entryX=0.25;entryY=1;entryDx=0;entryDy=0;" edge="1" parent="1" source="HrBi-GwACowh-hKgW3gO-7" target="HrBi-GwACowh-hKgW3gO-15">
          <mxGeometry width="50" height="50" relative="1" as="geometry">
            <mxPoint x="568" y="370" as="sourcePoint" />
            <mxPoint x="568" y="170" as="targetPoint" />
          </mxGeometry>
        </mxCell>
        <mxCell id="HrBi-GwACowh-hKgW3gO-15" value="" style="html=1;points=[[0,0,0,0,5],[0,1,0,0,-5],[1,0,0,0,5],[1,1,0,0,-5]];perimeter=orthogonalPerimeter;outlineConnect=0;targetShapes=umlLifeline;portConstraint=eastwest;newEdgeStyle={&quot;curved&quot;:0,&quot;rounded&quot;:0};" vertex="1" parent="1">
          <mxGeometry x="570" y="210" width="10" height="80" as="geometry" />
        </mxCell>
        <mxCell id="HrBi-GwACowh-hKgW3gO-19" value="self call" style="html=1;align=left;spacingLeft=2;endArrow=block;rounded=0;edgeStyle=orthogonalEdgeStyle;curved=0;rounded=0;" edge="1" parent="1">
          <mxGeometry relative="1" as="geometry">
            <mxPoint x="570" y="240" as="sourcePoint" />
            <Array as="points">
              <mxPoint x="600" y="270" />
            </Array>
            <mxPoint x="575" y="270" as="targetPoint" />
          </mxGeometry>
        </mxCell>
        <mxCell id="HrBi-GwACowh-hKgW3gO-20" value="4: insert(note)" style="text;html=1;align=center;verticalAlign=middle;resizable=0;points=[];autosize=1;strokeColor=none;fillColor=none;" vertex="1" parent="1">
          <mxGeometry x="570" y="218" width="100" height="30" as="geometry" />
        </mxCell>
        <mxCell id="HrBi-GwACowh-hKgW3gO-23" value="5: delete(Trip)" style="html=1;verticalAlign=bottom;startArrow=oval;startFill=1;endArrow=block;startSize=8;curved=0;rounded=0;" edge="1" parent="1">
          <mxGeometry width="60" relative="1" as="geometry">
            <mxPoint x="80" y="300" as="sourcePoint" />
            <mxPoint x="350" y="300" as="targetPoint" />
          </mxGeometry>
        </mxCell>
        <mxCell id="HrBi-GwACowh-hKgW3gO-25" value="" style="endArrow=none;dashed=1;html=1;dashPattern=1 3;strokeWidth=2;rounded=0;entryX=0.45;entryY=1.033;entryDx=0;entryDy=0;entryPerimeter=0;" edge="1" parent="1" target="HrBi-GwACowh-hKgW3gO-24">
          <mxGeometry width="50" height="50" relative="1" as="geometry">
            <mxPoint x="350" y="360" as="sourcePoint" />
            <mxPoint x="355" y="213" as="targetPoint" />
          </mxGeometry>
        </mxCell>
        <mxCell id="HrBi-GwACowh-hKgW3gO-24" value="" style="html=1;points=[[0,0,0,0,5],[0,1,0,0,-5],[1,0,0,0,5],[1,1,0,0,-5]];perimeter=orthogonalPerimeter;outlineConnect=0;targetShapes=umlLifeline;portConstraint=eastwest;newEdgeStyle={&quot;curved&quot;:0,&quot;rounded&quot;:0};" vertex="1" parent="1">
          <mxGeometry x="350" y="280" width="10" height="80" as="geometry" />
        </mxCell>
        <mxCell id="HrBi-GwACowh-hKgW3gO-26" value="" style="html=1;points=[[0,0,0,0,5],[0,1,0,0,-5],[1,0,0,0,5],[1,1,0,0,-5]];perimeter=orthogonalPerimeter;outlineConnect=0;targetShapes=umlLifeline;portConstraint=eastwest;newEdgeStyle={&quot;curved&quot;:0,&quot;rounded&quot;:0};" vertex="1" parent="1">
          <mxGeometry x="570" y="320" width="10" height="80" as="geometry" />
        </mxCell>
        <mxCell id="HrBi-GwACowh-hKgW3gO-27" value="6: deleteTrip" style="html=1;verticalAlign=bottom;startArrow=oval;startFill=1;endArrow=block;startSize=8;curved=0;rounded=0;" edge="1" parent="1">
          <mxGeometry width="60" relative="1" as="geometry">
            <mxPoint x="360" y="350" as="sourcePoint" />
            <mxPoint x="570" y="350" as="targetPoint" />
          </mxGeometry>
        </mxCell>
      </root>
    </mxGraphModel>
  </diagram>
</mxfile>
